<mxfile host="app.diagrams.net" modified="2023-03-14T10:16:31.867Z" agent="5.0 (Windows NT 10.0; Win64; x64) AppleWebKit/537.36 (KHTML, like Gecko) Chrome/111.0.0.0 Safari/537.36" etag="FxZRDArx1uEegtqaII5C" version="20.8.5" type="github" pages="2">
  <diagram id="XQGgxCQb59CGtTCqFSaC" name="第 1 页">
    <mxGraphModel dx="2269" dy="4663" grid="0" gridSize="10" guides="1" tooltips="1" connect="1" arrows="1" fold="1" page="1" pageScale="1" pageWidth="2339" pageHeight="3300" math="0" shadow="0">
      <root>
        <mxCell id="0" />
        <mxCell id="1" parent="0" />
        <mxCell id="_EZ3YEkm6RuFGxG8F9kl-73" value="" style="rounded=0;whiteSpace=wrap;html=1;strokeWidth=3;fontSize=25;fillColor=none;strokeColor=#b85450;" parent="1" vertex="1">
          <mxGeometry x="1573" y="-23.5" width="1020" height="758.5" as="geometry" />
        </mxCell>
        <mxCell id="_EZ3YEkm6RuFGxG8F9kl-71" value="" style="rounded=0;whiteSpace=wrap;html=1;strokeWidth=3;fontSize=25;fillColor=none;strokeColor=#6c8ebf;" parent="1" vertex="1">
          <mxGeometry x="660" y="300" width="870" height="436" as="geometry" />
        </mxCell>
        <mxCell id="_EZ3YEkm6RuFGxG8F9kl-60" value="" style="rounded=0;whiteSpace=wrap;html=1;dashed=1;strokeWidth=3;fontSize=25;fillColor=none;" parent="1" vertex="1">
          <mxGeometry x="1610" y="92" width="940" height="179" as="geometry" />
        </mxCell>
        <mxCell id="_EZ3YEkm6RuFGxG8F9kl-51" value="" style="rounded=0;whiteSpace=wrap;html=1;fontSize=25;fillColor=none;dashed=1;strokeWidth=3;" parent="1" vertex="1">
          <mxGeometry x="1610" y="398.5" width="940" height="312" as="geometry" />
        </mxCell>
        <mxCell id="NS00gCiKRsFZbpaDCI7U-1" value="" style="verticalLabelPosition=bottom;verticalAlign=top;html=1;shape=mxgraph.basic.patternFillRect;fillStyle=auto;step=5;fillStrokeWidth=0.2;fillStrokeColor=#dddddd;gradientDirection=north;strokeColor=none;shadow=0;sketch=0;fillColor=#eeeeee;strokeWidth=3;" parent="1" vertex="1">
          <mxGeometry x="742.73" y="663.5" width="47.22" height="47" as="geometry" />
        </mxCell>
        <mxCell id="NS00gCiKRsFZbpaDCI7U-2" value="&lt;span style=&quot;font-size: 20px;&quot;&gt;今&lt;/span&gt;" style="text;html=1;resizable=0;autosize=1;align=center;verticalAlign=middle;points=[];fillColor=none;strokeColor=none;rounded=0;dashed=1;fontFamily=Times New Roman;fontSize=11;strokeWidth=3;" parent="1" vertex="1">
          <mxGeometry x="745.73" y="667" width="40" height="40" as="geometry" />
        </mxCell>
        <mxCell id="NS00gCiKRsFZbpaDCI7U-3" value="" style="verticalLabelPosition=bottom;verticalAlign=top;html=1;shape=mxgraph.basic.patternFillRect;fillStyle=auto;step=5;fillStrokeWidth=0.2;fillStrokeColor=#dddddd;gradientDirection=north;strokeColor=none;shadow=0;sketch=0;fillColor=#eeeeee;strokeWidth=3;" parent="1" vertex="1">
          <mxGeometry x="811.98" y="663.5" width="47.22" height="47" as="geometry" />
        </mxCell>
        <mxCell id="NS00gCiKRsFZbpaDCI7U-4" value="" style="verticalLabelPosition=bottom;verticalAlign=top;html=1;shape=mxgraph.basic.patternFillRect;fillStyle=auto;step=5;fillStrokeWidth=0.2;fillStrokeColor=#dddddd;gradientDirection=north;strokeColor=none;shadow=0;sketch=0;fillColor=#eeeeee;strokeWidth=3;" parent="1" vertex="1">
          <mxGeometry x="880.01" y="663.5" width="47.22" height="47" as="geometry" />
        </mxCell>
        <mxCell id="NS00gCiKRsFZbpaDCI7U-5" value="&lt;font style=&quot;font-size: 20px;&quot;&gt;予&lt;/font&gt;" style="text;html=1;resizable=0;autosize=1;align=center;verticalAlign=middle;points=[];fillColor=none;strokeColor=none;rounded=0;dashed=1;fontFamily=Times New Roman;fontSize=11;strokeWidth=3;" parent="1" vertex="1">
          <mxGeometry x="813.72" y="667" width="40" height="40" as="geometry" />
        </mxCell>
        <mxCell id="NS00gCiKRsFZbpaDCI7U-6" value="&lt;span style=&quot;font-size: 20px;&quot;&gt;输&lt;/span&gt;" style="text;html=1;resizable=0;autosize=1;align=center;verticalAlign=middle;points=[];fillColor=none;strokeColor=none;rounded=0;dashed=1;fontFamily=Times New Roman;fontSize=11;strokeWidth=3;" parent="1" vertex="1">
          <mxGeometry x="883.62" y="667" width="40" height="40" as="geometry" />
        </mxCell>
        <mxCell id="NS00gCiKRsFZbpaDCI7U-7" value="" style="verticalLabelPosition=bottom;verticalAlign=top;html=1;shape=mxgraph.basic.patternFillRect;fillStyle=auto;step=5;fillStrokeWidth=0.2;fillStrokeColor=#dddddd;gradientDirection=north;strokeColor=none;shadow=0;sketch=0;fillColor=#eeeeee;strokeWidth=3;" parent="1" vertex="1">
          <mxGeometry x="946.44" y="663" width="47.22" height="47" as="geometry" />
        </mxCell>
        <mxCell id="NS00gCiKRsFZbpaDCI7U-8" value="" style="verticalLabelPosition=bottom;verticalAlign=top;html=1;shape=mxgraph.basic.patternFillRect;fillStyle=auto;step=5;fillStrokeWidth=0.2;fillStrokeColor=#dddddd;gradientDirection=north;strokeColor=none;shadow=0;sketch=0;fillColor=#eeeeee;strokeWidth=3;" parent="1" vertex="1">
          <mxGeometry x="1011.6600000000001" y="663" width="47.22" height="47" as="geometry" />
        </mxCell>
        <mxCell id="NS00gCiKRsFZbpaDCI7U-9" value="&lt;span style=&quot;font-size: 20px;&quot;&gt;血&lt;/span&gt;" style="text;html=1;resizable=0;autosize=1;align=center;verticalAlign=middle;points=[];fillColor=none;strokeColor=none;rounded=0;dashed=1;fontFamily=Times New Roman;fontSize=11;strokeWidth=3;" parent="1" vertex="1">
          <mxGeometry x="949.9300000000001" y="666.5" width="40" height="40" as="geometry" />
        </mxCell>
        <mxCell id="NS00gCiKRsFZbpaDCI7U-10" value="&lt;span style=&quot;font-size: 20px;&quot;&gt;蛋&lt;/span&gt;" style="text;html=1;resizable=0;autosize=1;align=center;verticalAlign=middle;points=[];fillColor=none;strokeColor=none;rounded=0;dashed=1;fontFamily=Times New Roman;fontSize=11;strokeWidth=3;" parent="1" vertex="1">
          <mxGeometry x="1015.27" y="666.5" width="40" height="40" as="geometry" />
        </mxCell>
        <mxCell id="NS00gCiKRsFZbpaDCI7U-11" value="" style="verticalLabelPosition=bottom;verticalAlign=top;html=1;shape=mxgraph.basic.patternFillRect;fillStyle=auto;step=5;fillStrokeWidth=0.2;fillStrokeColor=#dddddd;gradientDirection=north;strokeColor=none;shadow=0;sketch=0;fillColor=#eeeeee;strokeWidth=3;" parent="1" vertex="1">
          <mxGeometry x="1078.39" y="662.5" width="47.22" height="47" as="geometry" />
        </mxCell>
        <mxCell id="NS00gCiKRsFZbpaDCI7U-12" value="" style="verticalLabelPosition=bottom;verticalAlign=top;html=1;shape=mxgraph.basic.patternFillRect;fillStyle=auto;step=5;fillStrokeWidth=0.2;fillStrokeColor=#dddddd;gradientDirection=north;strokeColor=none;shadow=0;sketch=0;fillColor=#eeeeee;strokeWidth=3;" parent="1" vertex="1">
          <mxGeometry x="1144.42" y="662.5" width="47.22" height="47" as="geometry" />
        </mxCell>
        <mxCell id="NS00gCiKRsFZbpaDCI7U-13" value="&lt;span style=&quot;font-size: 20px;&quot;&gt;白&lt;/span&gt;" style="text;html=1;resizable=0;autosize=1;align=center;verticalAlign=middle;points=[];fillColor=none;strokeColor=none;rounded=0;dashed=1;fontFamily=Times New Roman;fontSize=11;strokeWidth=3;" parent="1" vertex="1">
          <mxGeometry x="1082" y="666" width="40" height="40" as="geometry" />
        </mxCell>
        <mxCell id="NS00gCiKRsFZbpaDCI7U-14" value="&lt;font style=&quot;font-size: 20px;&quot;&gt;1&lt;/font&gt;" style="text;html=1;resizable=0;autosize=1;align=center;verticalAlign=middle;points=[];fillColor=none;strokeColor=none;rounded=0;dashed=1;fontFamily=Times New Roman;fontSize=11;strokeWidth=3;" parent="1" vertex="1">
          <mxGeometry x="1153.0300000000002" y="666" width="30" height="40" as="geometry" />
        </mxCell>
        <mxCell id="NS00gCiKRsFZbpaDCI7U-15" value="" style="verticalLabelPosition=bottom;verticalAlign=top;html=1;shape=mxgraph.basic.patternFillRect;fillStyle=auto;step=5;fillStrokeWidth=0.2;fillStrokeColor=#dddddd;gradientDirection=north;strokeColor=none;shadow=0;sketch=0;fillColor=#eeeeee;strokeWidth=3;" parent="1" vertex="1">
          <mxGeometry x="1211.64" y="662.5" width="47.22" height="47" as="geometry" />
        </mxCell>
        <mxCell id="NS00gCiKRsFZbpaDCI7U-16" value="" style="verticalLabelPosition=bottom;verticalAlign=top;html=1;shape=mxgraph.basic.patternFillRect;fillStyle=auto;step=5;fillStrokeWidth=0.2;fillStrokeColor=#dddddd;gradientDirection=north;strokeColor=none;shadow=0;sketch=0;fillColor=#eeeeee;strokeWidth=3;" parent="1" vertex="1">
          <mxGeometry x="1277.8600000000001" y="662.5" width="47.22" height="47" as="geometry" />
        </mxCell>
        <mxCell id="NS00gCiKRsFZbpaDCI7U-17" value="" style="verticalLabelPosition=bottom;verticalAlign=top;html=1;shape=mxgraph.basic.patternFillRect;fillStyle=auto;step=5;fillStrokeWidth=0.2;fillStrokeColor=#dddddd;gradientDirection=north;strokeColor=none;shadow=0;sketch=0;fillColor=#eeeeee;strokeWidth=3;" parent="1" vertex="1">
          <mxGeometry x="1345.0800000000002" y="662.5" width="47.22" height="47" as="geometry" />
        </mxCell>
        <mxCell id="NS00gCiKRsFZbpaDCI7U-18" value="&lt;font style=&quot;font-size: 20px;&quot;&gt;0&lt;/font&gt;" style="text;html=1;resizable=0;autosize=1;align=center;verticalAlign=middle;points=[];fillColor=none;strokeColor=none;rounded=0;dashed=1;fontFamily=Times New Roman;fontSize=11;strokeWidth=3;" parent="1" vertex="1">
          <mxGeometry x="1220.25" y="666" width="30" height="40" as="geometry" />
        </mxCell>
        <mxCell id="NS00gCiKRsFZbpaDCI7U-19" value="&lt;font style=&quot;font-size: 20px;&quot;&gt;0&lt;/font&gt;" style="text;html=1;resizable=0;autosize=1;align=center;verticalAlign=middle;points=[];fillColor=none;strokeColor=none;rounded=0;dashed=1;fontFamily=Times New Roman;fontSize=11;strokeWidth=3;" parent="1" vertex="1">
          <mxGeometry x="1286.47" y="666" width="30" height="40" as="geometry" />
        </mxCell>
        <mxCell id="NS00gCiKRsFZbpaDCI7U-20" value="&lt;font style=&quot;font-size: 20px;&quot;&gt;m&lt;/font&gt;" style="text;html=1;resizable=0;autosize=1;align=center;verticalAlign=middle;points=[];fillColor=none;strokeColor=none;rounded=0;dashed=1;fontFamily=Times New Roman;fontSize=11;strokeWidth=3;" parent="1" vertex="1">
          <mxGeometry x="1348.69" y="666" width="40" height="40" as="geometry" />
        </mxCell>
        <mxCell id="NS00gCiKRsFZbpaDCI7U-21" value="" style="verticalLabelPosition=bottom;verticalAlign=top;html=1;shape=mxgraph.basic.patternFillRect;fillStyle=auto;step=5;fillStrokeWidth=0.2;fillStrokeColor=#dddddd;gradientDirection=north;strokeColor=none;shadow=0;sketch=0;fillColor=#eeeeee;strokeWidth=3;" parent="1" vertex="1">
          <mxGeometry x="1413.7300000000002" y="662" width="47.22" height="47" as="geometry" />
        </mxCell>
        <mxCell id="NS00gCiKRsFZbpaDCI7U-22" value="&lt;span style=&quot;font-size: 20px;&quot;&gt;l&lt;/span&gt;" style="text;html=1;resizable=0;autosize=1;align=center;verticalAlign=middle;points=[];fillColor=none;strokeColor=none;rounded=0;dashed=1;fontFamily=Times New Roman;fontSize=11;strokeWidth=3;" parent="1" vertex="1">
          <mxGeometry x="1422.3400000000001" y="665.5" width="30" height="40" as="geometry" />
        </mxCell>
        <mxCell id="NS00gCiKRsFZbpaDCI7U-23" value="&lt;font style=&quot;font-size: 32px;&quot;&gt;Input：今予输血蛋白100ml&lt;/font&gt;" style="rounded=0;whiteSpace=wrap;html=1;" parent="1" vertex="1">
          <mxGeometry x="1300" y="805" width="550" height="60" as="geometry" />
        </mxCell>
        <mxCell id="_EZ3YEkm6RuFGxG8F9kl-6" style="edgeStyle=orthogonalEdgeStyle;rounded=0;orthogonalLoop=1;jettySize=auto;html=1;exitX=0.5;exitY=0;exitDx=0;exitDy=0;entryX=0.5;entryY=0;entryDx=0;entryDy=0;" parent="1" source="NS00gCiKRsFZbpaDCI7U-24" target="_EZ3YEkm6RuFGxG8F9kl-3" edge="1">
          <mxGeometry relative="1" as="geometry" />
        </mxCell>
        <mxCell id="_EZ3YEkm6RuFGxG8F9kl-12" value="dobj" style="edgeLabel;html=1;align=center;verticalAlign=middle;resizable=0;points=[];fontSize=25;" parent="_EZ3YEkm6RuFGxG8F9kl-6" vertex="1" connectable="0">
          <mxGeometry x="0.1071" y="1" relative="1" as="geometry">
            <mxPoint x="1" as="offset" />
          </mxGeometry>
        </mxCell>
        <mxCell id="_EZ3YEkm6RuFGxG8F9kl-10" style="edgeStyle=orthogonalEdgeStyle;rounded=0;orthogonalLoop=1;jettySize=auto;html=1;exitX=0.5;exitY=0;exitDx=0;exitDy=0;entryX=0.5;entryY=0;entryDx=0;entryDy=0;" parent="1" source="NS00gCiKRsFZbpaDCI7U-24" target="_EZ3YEkm6RuFGxG8F9kl-5" edge="1">
          <mxGeometry relative="1" as="geometry">
            <Array as="points">
              <mxPoint x="1780" y="530" />
              <mxPoint x="2460" y="530" />
            </Array>
          </mxGeometry>
        </mxCell>
        <mxCell id="_EZ3YEkm6RuFGxG8F9kl-11" value="&lt;font style=&quot;font-size: 25px;&quot;&gt;dep&lt;/font&gt;" style="edgeLabel;html=1;align=center;verticalAlign=middle;resizable=0;points=[];" parent="_EZ3YEkm6RuFGxG8F9kl-10" vertex="1" connectable="0">
          <mxGeometry x="0.1111" y="5" relative="1" as="geometry">
            <mxPoint x="1" as="offset" />
          </mxGeometry>
        </mxCell>
        <mxCell id="NS00gCiKRsFZbpaDCI7U-24" value="今予" style="rounded=0;whiteSpace=wrap;html=1;fontSize=32;" parent="1" vertex="1">
          <mxGeometry x="1720" y="588" width="120" height="60" as="geometry" />
        </mxCell>
        <mxCell id="_EZ3YEkm6RuFGxG8F9kl-2" value="输" style="rounded=0;whiteSpace=wrap;html=1;fontSize=32;" parent="1" vertex="1">
          <mxGeometry x="1860" y="587.5" width="120" height="60" as="geometry" />
        </mxCell>
        <mxCell id="_EZ3YEkm6RuFGxG8F9kl-7" style="edgeStyle=orthogonalEdgeStyle;rounded=0;orthogonalLoop=1;jettySize=auto;html=1;exitX=0.5;exitY=1;exitDx=0;exitDy=0;entryX=0.5;entryY=1;entryDx=0;entryDy=0;" parent="1" source="_EZ3YEkm6RuFGxG8F9kl-3" target="_EZ3YEkm6RuFGxG8F9kl-2" edge="1">
          <mxGeometry relative="1" as="geometry">
            <Array as="points">
              <mxPoint x="2070" y="670" />
              <mxPoint x="1920" y="670" />
            </Array>
          </mxGeometry>
        </mxCell>
        <mxCell id="_EZ3YEkm6RuFGxG8F9kl-13" value="compound:nn" style="edgeLabel;html=1;align=center;verticalAlign=middle;resizable=0;points=[];fontSize=25;" parent="_EZ3YEkm6RuFGxG8F9kl-7" vertex="1" connectable="0">
          <mxGeometry x="-0.3055" y="-1" relative="1" as="geometry">
            <mxPoint x="-42" y="21" as="offset" />
          </mxGeometry>
        </mxCell>
        <mxCell id="_EZ3YEkm6RuFGxG8F9kl-9" style="edgeStyle=orthogonalEdgeStyle;rounded=0;orthogonalLoop=1;jettySize=auto;html=1;exitX=1;exitY=0.5;exitDx=0;exitDy=0;entryX=0;entryY=0.5;entryDx=0;entryDy=0;" parent="1" source="_EZ3YEkm6RuFGxG8F9kl-3" target="_EZ3YEkm6RuFGxG8F9kl-4" edge="1">
          <mxGeometry relative="1" as="geometry" />
        </mxCell>
        <mxCell id="_EZ3YEkm6RuFGxG8F9kl-43" value="dep" style="edgeLabel;html=1;align=center;verticalAlign=middle;resizable=0;points=[];fontSize=25;" parent="_EZ3YEkm6RuFGxG8F9kl-9" vertex="1" connectable="0">
          <mxGeometry x="-0.2739" y="-1" relative="1" as="geometry">
            <mxPoint x="20" y="-1" as="offset" />
          </mxGeometry>
        </mxCell>
        <mxCell id="_EZ3YEkm6RuFGxG8F9kl-3" value="血蛋白" style="rounded=0;whiteSpace=wrap;html=1;fontSize=32;" parent="1" vertex="1">
          <mxGeometry x="2020" y="587" width="120" height="60" as="geometry" />
        </mxCell>
        <mxCell id="_EZ3YEkm6RuFGxG8F9kl-4" value="100" style="rounded=0;whiteSpace=wrap;html=1;fontSize=32;" parent="1" vertex="1">
          <mxGeometry x="2250" y="587" width="120" height="60" as="geometry" />
        </mxCell>
        <mxCell id="_EZ3YEkm6RuFGxG8F9kl-5" value="ml" style="rounded=0;whiteSpace=wrap;html=1;fontSize=32;" parent="1" vertex="1">
          <mxGeometry x="2400" y="588.5" width="120" height="60" as="geometry" />
        </mxCell>
        <mxCell id="_EZ3YEkm6RuFGxG8F9kl-14" value="BERT-base" style="rounded=0;whiteSpace=wrap;html=1;fontSize=25;" parent="1" vertex="1">
          <mxGeometry x="732" y="528.5" width="740" height="80" as="geometry" />
        </mxCell>
        <mxCell id="_EZ3YEkm6RuFGxG8F9kl-58" style="edgeStyle=orthogonalEdgeStyle;rounded=0;orthogonalLoop=1;jettySize=auto;html=1;exitX=0.5;exitY=0;exitDx=0;exitDy=0;entryX=0.5;entryY=1;entryDx=0;entryDy=0;fontSize=25;" parent="1" source="_EZ3YEkm6RuFGxG8F9kl-15" target="_EZ3YEkm6RuFGxG8F9kl-55" edge="1">
          <mxGeometry relative="1" as="geometry" />
        </mxCell>
        <mxCell id="_EZ3YEkm6RuFGxG8F9kl-15" value="POS feature" style="rounded=0;whiteSpace=wrap;html=1;fontSize=25;" parent="1" vertex="1">
          <mxGeometry x="1610" y="294.5" width="450" height="60" as="geometry" />
        </mxCell>
        <mxCell id="_EZ3YEkm6RuFGxG8F9kl-54" style="edgeStyle=orthogonalEdgeStyle;rounded=0;orthogonalLoop=1;jettySize=auto;html=1;exitX=0.5;exitY=0;exitDx=0;exitDy=0;entryX=0.5;entryY=1;entryDx=0;entryDy=0;fontSize=25;" parent="1" source="_EZ3YEkm6RuFGxG8F9kl-17" target="_EZ3YEkm6RuFGxG8F9kl-19" edge="1">
          <mxGeometry relative="1" as="geometry" />
        </mxCell>
        <mxCell id="_EZ3YEkm6RuFGxG8F9kl-17" value="DEP feature" style="rounded=0;whiteSpace=wrap;html=1;fontSize=25;" parent="1" vertex="1">
          <mxGeometry x="2110" y="294" width="440" height="60" as="geometry" />
        </mxCell>
        <mxCell id="_EZ3YEkm6RuFGxG8F9kl-19" value="Key-Value memory network" style="rounded=1;whiteSpace=wrap;html=1;fontSize=25;" parent="1" vertex="1">
          <mxGeometry x="2130" y="110" width="400" height="120" as="geometry" />
        </mxCell>
        <mxCell id="_EZ3YEkm6RuFGxG8F9kl-21" value="" style="verticalLabelPosition=bottom;verticalAlign=top;html=1;shape=mxgraph.basic.patternFillRect;fillStyle=auto;step=5;fillStrokeWidth=0.2;fillStrokeColor=#dddddd;gradientDirection=north;strokeColor=none;shadow=0;sketch=0;fillColor=#eeeeee;strokeWidth=3;" parent="1" vertex="1">
          <mxGeometry x="753.78" y="404" width="47.22" height="47" as="geometry" />
        </mxCell>
        <mxCell id="_EZ3YEkm6RuFGxG8F9kl-22" value="&lt;span style=&quot;font-size: 20px;&quot;&gt;h1&lt;/span&gt;" style="text;html=1;resizable=0;autosize=1;align=center;verticalAlign=middle;points=[];fillColor=none;strokeColor=none;rounded=0;dashed=1;fontFamily=Times New Roman;fontSize=11;strokeWidth=3;" parent="1" vertex="1">
          <mxGeometry x="756.78" y="407.5" width="40" height="40" as="geometry" />
        </mxCell>
        <mxCell id="_EZ3YEkm6RuFGxG8F9kl-23" value="" style="verticalLabelPosition=bottom;verticalAlign=top;html=1;shape=mxgraph.basic.patternFillRect;fillStyle=auto;step=5;fillStrokeWidth=0.2;fillStrokeColor=#dddddd;gradientDirection=north;strokeColor=none;shadow=0;sketch=0;fillColor=#eeeeee;strokeWidth=3;" parent="1" vertex="1">
          <mxGeometry x="823.03" y="404" width="47.22" height="47" as="geometry" />
        </mxCell>
        <mxCell id="_EZ3YEkm6RuFGxG8F9kl-24" value="" style="verticalLabelPosition=bottom;verticalAlign=top;html=1;shape=mxgraph.basic.patternFillRect;fillStyle=auto;step=5;fillStrokeWidth=0.2;fillStrokeColor=#dddddd;gradientDirection=north;strokeColor=none;shadow=0;sketch=0;fillColor=#eeeeee;strokeWidth=3;" parent="1" vertex="1">
          <mxGeometry x="891.06" y="404" width="47.22" height="47" as="geometry" />
        </mxCell>
        <mxCell id="_EZ3YEkm6RuFGxG8F9kl-25" value="&lt;font style=&quot;font-size: 20px;&quot;&gt;h2&lt;/font&gt;" style="text;html=1;resizable=0;autosize=1;align=center;verticalAlign=middle;points=[];fillColor=none;strokeColor=none;rounded=0;dashed=1;fontFamily=Times New Roman;fontSize=11;strokeWidth=3;" parent="1" vertex="1">
          <mxGeometry x="824.77" y="407.5" width="40" height="40" as="geometry" />
        </mxCell>
        <mxCell id="_EZ3YEkm6RuFGxG8F9kl-26" value="&lt;span style=&quot;font-size: 20px;&quot;&gt;h3&lt;/span&gt;" style="text;html=1;resizable=0;autosize=1;align=center;verticalAlign=middle;points=[];fillColor=none;strokeColor=none;rounded=0;dashed=1;fontFamily=Times New Roman;fontSize=11;strokeWidth=3;" parent="1" vertex="1">
          <mxGeometry x="894.67" y="407.5" width="40" height="40" as="geometry" />
        </mxCell>
        <mxCell id="_EZ3YEkm6RuFGxG8F9kl-27" value="" style="verticalLabelPosition=bottom;verticalAlign=top;html=1;shape=mxgraph.basic.patternFillRect;fillStyle=auto;step=5;fillStrokeWidth=0.2;fillStrokeColor=#dddddd;gradientDirection=north;strokeColor=none;shadow=0;sketch=0;fillColor=#eeeeee;strokeWidth=3;" parent="1" vertex="1">
          <mxGeometry x="957.49" y="403.5" width="47.22" height="47" as="geometry" />
        </mxCell>
        <mxCell id="_EZ3YEkm6RuFGxG8F9kl-28" value="" style="verticalLabelPosition=bottom;verticalAlign=top;html=1;shape=mxgraph.basic.patternFillRect;fillStyle=auto;step=5;fillStrokeWidth=0.2;fillStrokeColor=#dddddd;gradientDirection=north;strokeColor=none;shadow=0;sketch=0;fillColor=#eeeeee;strokeWidth=3;" parent="1" vertex="1">
          <mxGeometry x="1022.71" y="403.5" width="47.22" height="47" as="geometry" />
        </mxCell>
        <mxCell id="_EZ3YEkm6RuFGxG8F9kl-29" value="&lt;span style=&quot;font-size: 20px;&quot;&gt;h4&lt;/span&gt;" style="text;html=1;resizable=0;autosize=1;align=center;verticalAlign=middle;points=[];fillColor=none;strokeColor=none;rounded=0;dashed=1;fontFamily=Times New Roman;fontSize=11;strokeWidth=3;" parent="1" vertex="1">
          <mxGeometry x="960.98" y="407" width="40" height="40" as="geometry" />
        </mxCell>
        <mxCell id="_EZ3YEkm6RuFGxG8F9kl-30" value="&lt;span style=&quot;font-size: 20px;&quot;&gt;h5&lt;/span&gt;" style="text;html=1;resizable=0;autosize=1;align=center;verticalAlign=middle;points=[];fillColor=none;strokeColor=none;rounded=0;dashed=1;fontFamily=Times New Roman;fontSize=11;strokeWidth=3;" parent="1" vertex="1">
          <mxGeometry x="1026.32" y="407" width="40" height="40" as="geometry" />
        </mxCell>
        <mxCell id="_EZ3YEkm6RuFGxG8F9kl-31" value="" style="verticalLabelPosition=bottom;verticalAlign=top;html=1;shape=mxgraph.basic.patternFillRect;fillStyle=auto;step=5;fillStrokeWidth=0.2;fillStrokeColor=#dddddd;gradientDirection=north;strokeColor=none;shadow=0;sketch=0;fillColor=#eeeeee;strokeWidth=3;" parent="1" vertex="1">
          <mxGeometry x="1089.44" y="403" width="47.22" height="47" as="geometry" />
        </mxCell>
        <mxCell id="_EZ3YEkm6RuFGxG8F9kl-32" value="" style="verticalLabelPosition=bottom;verticalAlign=top;html=1;shape=mxgraph.basic.patternFillRect;fillStyle=auto;step=5;fillStrokeWidth=0.2;fillStrokeColor=#dddddd;gradientDirection=north;strokeColor=none;shadow=0;sketch=0;fillColor=#eeeeee;strokeWidth=3;" parent="1" vertex="1">
          <mxGeometry x="1155.47" y="403" width="47.22" height="47" as="geometry" />
        </mxCell>
        <mxCell id="_EZ3YEkm6RuFGxG8F9kl-33" value="&lt;span style=&quot;font-size: 20px;&quot;&gt;h6&lt;/span&gt;" style="text;html=1;resizable=0;autosize=1;align=center;verticalAlign=middle;points=[];fillColor=none;strokeColor=none;rounded=0;dashed=1;fontFamily=Times New Roman;fontSize=11;strokeWidth=3;" parent="1" vertex="1">
          <mxGeometry x="1093.05" y="406.5" width="40" height="40" as="geometry" />
        </mxCell>
        <mxCell id="_EZ3YEkm6RuFGxG8F9kl-34" value="&lt;font style=&quot;font-size: 20px;&quot;&gt;h7&lt;/font&gt;" style="text;html=1;resizable=0;autosize=1;align=center;verticalAlign=middle;points=[];fillColor=none;strokeColor=none;rounded=0;dashed=1;fontFamily=Times New Roman;fontSize=11;strokeWidth=3;" parent="1" vertex="1">
          <mxGeometry x="1159.0800000000002" y="406.5" width="40" height="40" as="geometry" />
        </mxCell>
        <mxCell id="_EZ3YEkm6RuFGxG8F9kl-35" value="" style="verticalLabelPosition=bottom;verticalAlign=top;html=1;shape=mxgraph.basic.patternFillRect;fillStyle=auto;step=5;fillStrokeWidth=0.2;fillStrokeColor=#dddddd;gradientDirection=north;strokeColor=none;shadow=0;sketch=0;fillColor=#eeeeee;strokeWidth=3;" parent="1" vertex="1">
          <mxGeometry x="1222.69" y="403" width="47.22" height="47" as="geometry" />
        </mxCell>
        <mxCell id="_EZ3YEkm6RuFGxG8F9kl-36" value="" style="verticalLabelPosition=bottom;verticalAlign=top;html=1;shape=mxgraph.basic.patternFillRect;fillStyle=auto;step=5;fillStrokeWidth=0.2;fillStrokeColor=#dddddd;gradientDirection=north;strokeColor=none;shadow=0;sketch=0;fillColor=#eeeeee;strokeWidth=3;" parent="1" vertex="1">
          <mxGeometry x="1288.91" y="403" width="47.22" height="47" as="geometry" />
        </mxCell>
        <mxCell id="_EZ3YEkm6RuFGxG8F9kl-37" value="" style="verticalLabelPosition=bottom;verticalAlign=top;html=1;shape=mxgraph.basic.patternFillRect;fillStyle=auto;step=5;fillStrokeWidth=0.2;fillStrokeColor=#dddddd;gradientDirection=north;strokeColor=none;shadow=0;sketch=0;fillColor=#eeeeee;strokeWidth=3;" parent="1" vertex="1">
          <mxGeometry x="1356.13" y="403" width="47.22" height="47" as="geometry" />
        </mxCell>
        <mxCell id="_EZ3YEkm6RuFGxG8F9kl-38" value="&lt;font style=&quot;font-size: 20px;&quot;&gt;h8&lt;/font&gt;" style="text;html=1;resizable=0;autosize=1;align=center;verticalAlign=middle;points=[];fillColor=none;strokeColor=none;rounded=0;dashed=1;fontFamily=Times New Roman;fontSize=11;strokeWidth=3;" parent="1" vertex="1">
          <mxGeometry x="1226.3" y="406.5" width="40" height="40" as="geometry" />
        </mxCell>
        <mxCell id="_EZ3YEkm6RuFGxG8F9kl-39" value="&lt;font style=&quot;font-size: 20px;&quot;&gt;h9&lt;/font&gt;" style="text;html=1;resizable=0;autosize=1;align=center;verticalAlign=middle;points=[];fillColor=none;strokeColor=none;rounded=0;dashed=1;fontFamily=Times New Roman;fontSize=11;strokeWidth=3;" parent="1" vertex="1">
          <mxGeometry x="1292.52" y="406.5" width="40" height="40" as="geometry" />
        </mxCell>
        <mxCell id="_EZ3YEkm6RuFGxG8F9kl-40" value="&lt;font style=&quot;font-size: 20px;&quot;&gt;h10&lt;/font&gt;" style="text;html=1;resizable=0;autosize=1;align=center;verticalAlign=middle;points=[];fillColor=none;strokeColor=none;rounded=0;dashed=1;fontFamily=Times New Roman;fontSize=11;strokeWidth=3;" parent="1" vertex="1">
          <mxGeometry x="1354.74" y="406.5" width="50" height="40" as="geometry" />
        </mxCell>
        <mxCell id="_EZ3YEkm6RuFGxG8F9kl-41" value="" style="verticalLabelPosition=bottom;verticalAlign=top;html=1;shape=mxgraph.basic.patternFillRect;fillStyle=auto;step=5;fillStrokeWidth=0.2;fillStrokeColor=#dddddd;gradientDirection=north;strokeColor=none;shadow=0;sketch=0;fillColor=#eeeeee;strokeWidth=3;" parent="1" vertex="1">
          <mxGeometry x="1424.7800000000002" y="402.5" width="47.22" height="47" as="geometry" />
        </mxCell>
        <mxCell id="_EZ3YEkm6RuFGxG8F9kl-42" value="&lt;span style=&quot;font-size: 20px;&quot;&gt;h11&lt;/span&gt;" style="text;html=1;resizable=0;autosize=1;align=center;verticalAlign=middle;points=[];fillColor=none;strokeColor=none;rounded=0;dashed=1;fontFamily=Times New Roman;fontSize=11;strokeWidth=3;" parent="1" vertex="1">
          <mxGeometry x="1423.39" y="406" width="50" height="40" as="geometry" />
        </mxCell>
        <mxCell id="_EZ3YEkm6RuFGxG8F9kl-44" value="NOUN" style="whiteSpace=wrap;html=1;aspect=fixed;fontSize=25;" parent="1" vertex="1">
          <mxGeometry x="1740" y="420" width="80" height="80" as="geometry" />
        </mxCell>
        <mxCell id="_EZ3YEkm6RuFGxG8F9kl-45" value="ADJ" style="whiteSpace=wrap;html=1;aspect=fixed;fontSize=25;" parent="1" vertex="1">
          <mxGeometry x="1880" y="420" width="80" height="80" as="geometry" />
        </mxCell>
        <mxCell id="_EZ3YEkm6RuFGxG8F9kl-46" value="NOUN" style="whiteSpace=wrap;html=1;aspect=fixed;fontSize=25;" parent="1" vertex="1">
          <mxGeometry x="2040" y="420" width="80" height="80" as="geometry" />
        </mxCell>
        <mxCell id="_EZ3YEkm6RuFGxG8F9kl-47" value="NUM" style="whiteSpace=wrap;html=1;aspect=fixed;fontSize=25;" parent="1" vertex="1">
          <mxGeometry x="2270" y="420" width="80" height="80" as="geometry" />
        </mxCell>
        <mxCell id="_EZ3YEkm6RuFGxG8F9kl-48" value="NUM" style="whiteSpace=wrap;html=1;aspect=fixed;fontSize=25;" parent="1" vertex="1">
          <mxGeometry x="2420" y="420" width="80" height="80" as="geometry" />
        </mxCell>
        <mxCell id="_EZ3YEkm6RuFGxG8F9kl-50" value="POS:" style="text;strokeColor=none;align=center;fillColor=none;html=1;verticalAlign=middle;whiteSpace=wrap;rounded=0;fontSize=25;" parent="1" vertex="1">
          <mxGeometry x="1630" y="445" width="60" height="30" as="geometry" />
        </mxCell>
        <mxCell id="_EZ3YEkm6RuFGxG8F9kl-52" value="" style="shape=flexArrow;endArrow=classic;html=1;rounded=0;fontSize=25;exitX=0.527;exitY=-0.021;exitDx=0;exitDy=0;exitPerimeter=0;" parent="1" edge="1">
          <mxGeometry width="50" height="50" relative="1" as="geometry">
            <mxPoint x="1121.98" y="521.8199999999999" as="sourcePoint" />
            <mxPoint x="1121.77" y="473.5" as="targetPoint" />
          </mxGeometry>
        </mxCell>
        <mxCell id="_EZ3YEkm6RuFGxG8F9kl-53" value="" style="shape=flexArrow;endArrow=classic;html=1;rounded=0;fontSize=25;exitX=0.527;exitY=-0.021;exitDx=0;exitDy=0;exitPerimeter=0;" parent="1" edge="1">
          <mxGeometry width="50" height="50" relative="1" as="geometry">
            <mxPoint x="1122.98" y="653.8199999999999" as="sourcePoint" />
            <mxPoint x="1122.77" y="612.5" as="targetPoint" />
          </mxGeometry>
        </mxCell>
        <mxCell id="_EZ3YEkm6RuFGxG8F9kl-55" value="Key-Value memory network" style="rounded=1;whiteSpace=wrap;html=1;fontSize=25;" parent="1" vertex="1">
          <mxGeometry x="1631" y="110" width="410" height="120" as="geometry" />
        </mxCell>
        <mxCell id="_EZ3YEkm6RuFGxG8F9kl-57" style="edgeStyle=orthogonalEdgeStyle;rounded=0;orthogonalLoop=1;jettySize=auto;html=1;exitX=0.5;exitY=0;exitDx=0;exitDy=0;entryX=0.5;entryY=1;entryDx=0;entryDy=0;fontSize=25;" parent="1" source="_EZ3YEkm6RuFGxG8F9kl-56" target="_EZ3YEkm6RuFGxG8F9kl-55" edge="1">
          <mxGeometry relative="1" as="geometry">
            <Array as="points">
              <mxPoint x="1110" y="280" />
              <mxPoint x="1835" y="280" />
            </Array>
          </mxGeometry>
        </mxCell>
        <mxCell id="_EZ3YEkm6RuFGxG8F9kl-59" style="edgeStyle=orthogonalEdgeStyle;rounded=0;orthogonalLoop=1;jettySize=auto;html=1;exitX=0.5;exitY=0;exitDx=0;exitDy=0;entryX=0.5;entryY=1;entryDx=0;entryDy=0;fontSize=25;" parent="1" source="_EZ3YEkm6RuFGxG8F9kl-56" target="_EZ3YEkm6RuFGxG8F9kl-19" edge="1">
          <mxGeometry relative="1" as="geometry">
            <Array as="points">
              <mxPoint x="1110" y="280" />
              <mxPoint x="2330" y="280" />
            </Array>
          </mxGeometry>
        </mxCell>
        <mxCell id="_EZ3YEkm6RuFGxG8F9kl-63" style="edgeStyle=orthogonalEdgeStyle;rounded=0;orthogonalLoop=1;jettySize=auto;html=1;exitX=0.5;exitY=0;exitDx=0;exitDy=0;entryX=0.5;entryY=1;entryDx=0;entryDy=0;fontSize=25;" parent="1" source="_EZ3YEkm6RuFGxG8F9kl-56" target="_EZ3YEkm6RuFGxG8F9kl-61" edge="1">
          <mxGeometry relative="1" as="geometry" />
        </mxCell>
        <mxCell id="_EZ3YEkm6RuFGxG8F9kl-56" value="" style="rounded=0;whiteSpace=wrap;html=1;dashed=1;strokeWidth=3;fontSize=25;fillColor=none;" parent="1" vertex="1">
          <mxGeometry x="732" y="382.5" width="760" height="90" as="geometry" />
        </mxCell>
        <mxCell id="_EZ3YEkm6RuFGxG8F9kl-62" style="edgeStyle=orthogonalEdgeStyle;rounded=0;orthogonalLoop=1;jettySize=auto;html=1;exitX=0;exitY=0.5;exitDx=0;exitDy=0;entryX=1;entryY=0.5;entryDx=0;entryDy=0;fontSize=25;" parent="1" source="_EZ3YEkm6RuFGxG8F9kl-60" target="_EZ3YEkm6RuFGxG8F9kl-61" edge="1">
          <mxGeometry relative="1" as="geometry" />
        </mxCell>
        <mxCell id="_EZ3YEkm6RuFGxG8F9kl-65" style="edgeStyle=orthogonalEdgeStyle;rounded=0;orthogonalLoop=1;jettySize=auto;html=1;exitX=0.5;exitY=0;exitDx=0;exitDy=0;entryX=0.5;entryY=1;entryDx=0;entryDy=0;fontSize=25;" parent="1" source="_EZ3YEkm6RuFGxG8F9kl-61" target="_EZ3YEkm6RuFGxG8F9kl-64" edge="1">
          <mxGeometry relative="1" as="geometry" />
        </mxCell>
        <mxCell id="_EZ3YEkm6RuFGxG8F9kl-61" value="Concat" style="shape=parallelogram;perimeter=parallelogramPerimeter;whiteSpace=wrap;html=1;fixedSize=1;dashed=1;strokeWidth=3;fontSize=25;fillColor=none;" parent="1" vertex="1">
          <mxGeometry x="1025" y="153" width="170" height="60" as="geometry" />
        </mxCell>
        <mxCell id="_EZ3YEkm6RuFGxG8F9kl-76" style="edgeStyle=orthogonalEdgeStyle;rounded=0;orthogonalLoop=1;jettySize=auto;html=1;exitX=0.5;exitY=0;exitDx=0;exitDy=0;entryX=0.5;entryY=1;entryDx=0;entryDy=0;fontSize=30;" parent="1" source="_EZ3YEkm6RuFGxG8F9kl-64" target="_EZ3YEkm6RuFGxG8F9kl-75" edge="1">
          <mxGeometry relative="1" as="geometry" />
        </mxCell>
        <mxCell id="_EZ3YEkm6RuFGxG8F9kl-64" value="Neural networks" style="rounded=1;whiteSpace=wrap;html=1;dashed=1;strokeWidth=3;fontSize=25;fillColor=none;" parent="1" vertex="1">
          <mxGeometry x="726" y="57" width="766" height="53" as="geometry" />
        </mxCell>
        <mxCell id="_EZ3YEkm6RuFGxG8F9kl-66" value="" style="shape=flexArrow;endArrow=classic;html=1;rounded=0;fontSize=25;" parent="1" edge="1">
          <mxGeometry width="50" height="50" relative="1" as="geometry">
            <mxPoint x="1574.58" y="795" as="sourcePoint" />
            <mxPoint x="1575" y="745" as="targetPoint" />
          </mxGeometry>
        </mxCell>
        <mxCell id="_EZ3YEkm6RuFGxG8F9kl-69" value="" style="shape=flexArrow;endArrow=classic;html=1;rounded=0;fontSize=25;" parent="1" edge="1">
          <mxGeometry width="50" height="50" relative="1" as="geometry">
            <mxPoint x="1830" y="390" as="sourcePoint" />
            <mxPoint x="1830" y="360" as="targetPoint" />
          </mxGeometry>
        </mxCell>
        <mxCell id="_EZ3YEkm6RuFGxG8F9kl-70" value="" style="shape=flexArrow;endArrow=classic;html=1;rounded=0;fontSize=25;" parent="1" edge="1">
          <mxGeometry width="50" height="50" relative="1" as="geometry">
            <mxPoint x="2329.7" y="389" as="sourcePoint" />
            <mxPoint x="2329.7" y="359" as="targetPoint" />
          </mxGeometry>
        </mxCell>
        <mxCell id="_EZ3YEkm6RuFGxG8F9kl-72" value="&lt;font style=&quot;font-size: 30px;&quot;&gt;Part A&lt;/font&gt;" style="text;strokeColor=none;align=center;fillColor=none;html=1;verticalAlign=middle;whiteSpace=wrap;rounded=0;strokeWidth=3;fontSize=25;" parent="1" vertex="1">
          <mxGeometry x="669.95" y="321" width="120" height="30" as="geometry" />
        </mxCell>
        <mxCell id="_EZ3YEkm6RuFGxG8F9kl-74" value="&lt;font style=&quot;font-size: 30px;&quot;&gt;Part B&lt;/font&gt;" style="text;strokeColor=none;align=center;fillColor=none;html=1;verticalAlign=middle;whiteSpace=wrap;rounded=0;strokeWidth=3;fontSize=25;" parent="1" vertex="1">
          <mxGeometry x="1600" y="16.5" width="120" height="30" as="geometry" />
        </mxCell>
        <mxCell id="_EZ3YEkm6RuFGxG8F9kl-75" value="Span classifier" style="rounded=1;whiteSpace=wrap;html=1;dashed=1;strokeWidth=3;fontSize=25;fillColor=none;" parent="1" vertex="1">
          <mxGeometry x="726" y="-30" width="766" height="53" as="geometry" />
        </mxCell>
        <mxCell id="_EZ3YEkm6RuFGxG8F9kl-77" value="" style="rounded=0;whiteSpace=wrap;html=1;strokeWidth=3;fontSize=25;fillColor=none;strokeColor=#d6b656;" parent="1" vertex="1">
          <mxGeometry x="660" y="-70" width="870" height="319.5" as="geometry" />
        </mxCell>
        <mxCell id="_EZ3YEkm6RuFGxG8F9kl-78" value="&lt;font style=&quot;font-size: 30px;&quot;&gt;Part C&lt;/font&gt;" style="text;strokeColor=none;align=center;fillColor=none;html=1;verticalAlign=middle;whiteSpace=wrap;rounded=0;strokeWidth=3;fontSize=25;" parent="1" vertex="1">
          <mxGeometry x="669.95" y="170" width="120" height="30" as="geometry" />
        </mxCell>
      </root>
    </mxGraphModel>
  </diagram>
  <diagram id="b9GTOyHMJrUYbHdpC5fi" name="第 2 页">
    <mxGraphModel dx="1323" dy="968" grid="0" gridSize="10" guides="1" tooltips="1" connect="1" arrows="1" fold="1" page="1" pageScale="1" pageWidth="1654" pageHeight="2336" math="0" shadow="0">
      <root>
        <mxCell id="0" />
        <mxCell id="1" parent="0" />
        <mxCell id="yiJvitMjWtOU7qGL33Nb-7" value="" style="rounded=0;whiteSpace=wrap;html=1;fontFamily=Times New Roman;fontSize=24;fillColor=none;dashed=1;strokeWidth=2;" parent="1" vertex="1">
          <mxGeometry x="371" y="1181.25" width="582" height="186.75" as="geometry" />
        </mxCell>
        <mxCell id="551UjRQRnKLMiDwJg6kU-5" value="" style="rounded=0;whiteSpace=wrap;html=1;dashed=1;fontFamily=Times New Roman;fontSize=24;fillColor=none;" vertex="1" parent="1">
          <mxGeometry x="375" y="849" width="569" height="217" as="geometry" />
        </mxCell>
        <mxCell id="yiJvitMjWtOU7qGL33Nb-4" style="rounded=0;orthogonalLoop=1;jettySize=auto;html=1;entryX=0.5;entryY=1;entryDx=0;entryDy=0;fontFamily=Times New Roman;fontSize=24;" parent="1" source="IrFRgaRxaVG2Ij1igVlt-1" target="yiJvitMjWtOU7qGL33Nb-3" edge="1">
          <mxGeometry relative="1" as="geometry" />
        </mxCell>
        <mxCell id="IrFRgaRxaVG2Ij1igVlt-1" value="&lt;font style=&quot;font-size: 24px;&quot; face=&quot;Times New Roman&quot;&gt;PART A&lt;/font&gt;" style="whiteSpace=wrap;html=1;aspect=fixed;" parent="1" vertex="1">
          <mxGeometry x="387" y="1212" width="138" height="138" as="geometry" />
        </mxCell>
        <mxCell id="yiJvitMjWtOU7qGL33Nb-6" style="edgeStyle=none;rounded=0;orthogonalLoop=1;jettySize=auto;html=1;exitX=0.5;exitY=0;exitDx=0;exitDy=0;entryX=0.5;entryY=1;entryDx=0;entryDy=0;fontFamily=Times New Roman;fontSize=24;" parent="1" source="IrFRgaRxaVG2Ij1igVlt-2" target="yiJvitMjWtOU7qGL33Nb-5" edge="1">
          <mxGeometry relative="1" as="geometry" />
        </mxCell>
        <mxCell id="IrFRgaRxaVG2Ij1igVlt-2" value="&lt;font face=&quot;Times New Roman&quot; style=&quot;font-size: 24px;&quot;&gt;PART B&lt;/font&gt;" style="whiteSpace=wrap;html=1;aspect=fixed;" parent="1" vertex="1">
          <mxGeometry x="800" y="1208" width="141" height="141" as="geometry" />
        </mxCell>
        <mxCell id="yiJvitMjWtOU7qGL33Nb-1" value="&lt;font style=&quot;font-size: 32px;&quot;&gt;Input：今予输血蛋白100ml&lt;/font&gt;" style="rounded=0;whiteSpace=wrap;html=1;" parent="1" vertex="1">
          <mxGeometry x="389" y="1428" width="550" height="60" as="geometry" />
        </mxCell>
        <mxCell id="yiJvitMjWtOU7qGL33Nb-2" value="" style="shape=flexArrow;endArrow=classic;html=1;rounded=0;fontSize=25;" parent="1" edge="1">
          <mxGeometry width="50" height="50" relative="1" as="geometry">
            <mxPoint x="665.5799999999999" y="1422" as="sourcePoint" />
            <mxPoint x="666" y="1372" as="targetPoint" />
          </mxGeometry>
        </mxCell>
        <mxCell id="551UjRQRnKLMiDwJg6kU-7" style="edgeStyle=orthogonalEdgeStyle;rounded=0;orthogonalLoop=1;jettySize=auto;html=1;exitX=0.5;exitY=0;exitDx=0;exitDy=0;entryX=0;entryY=0.5;entryDx=0;entryDy=0;fontFamily=Times New Roman;fontSize=24;" edge="1" parent="1" source="yiJvitMjWtOU7qGL33Nb-3" target="yiJvitMjWtOU7qGL33Nb-10">
          <mxGeometry relative="1" as="geometry" />
        </mxCell>
        <mxCell id="yiJvitMjWtOU7qGL33Nb-3" value="hi" style="rounded=0;whiteSpace=wrap;html=1;fontFamily=Times New Roman;fontSize=24;" parent="1" vertex="1">
          <mxGeometry x="394" y="1081" width="120" height="60" as="geometry" />
        </mxCell>
        <mxCell id="551UjRQRnKLMiDwJg6kU-8" style="edgeStyle=orthogonalEdgeStyle;rounded=0;orthogonalLoop=1;jettySize=auto;html=1;exitX=0.5;exitY=0;exitDx=0;exitDy=0;entryX=1;entryY=0.5;entryDx=0;entryDy=0;fontFamily=Times New Roman;fontSize=24;" edge="1" parent="1" source="yiJvitMjWtOU7qGL33Nb-5" target="yiJvitMjWtOU7qGL33Nb-10">
          <mxGeometry relative="1" as="geometry" />
        </mxCell>
        <mxCell id="yiJvitMjWtOU7qGL33Nb-5" value="si" style="rounded=0;whiteSpace=wrap;html=1;fontFamily=Times New Roman;fontSize=24;" parent="1" vertex="1">
          <mxGeometry x="810" y="1078" width="120" height="60" as="geometry" />
        </mxCell>
        <mxCell id="yiJvitMjWtOU7qGL33Nb-12" style="edgeStyle=none;rounded=0;orthogonalLoop=1;jettySize=auto;html=1;exitX=0.5;exitY=0;exitDx=0;exitDy=0;entryX=0.5;entryY=1;entryDx=0;entryDy=0;fontFamily=Times New Roman;fontSize=24;" parent="1" source="yiJvitMjWtOU7qGL33Nb-10" target="yiJvitMjWtOU7qGL33Nb-11" edge="1">
          <mxGeometry relative="1" as="geometry" />
        </mxCell>
        <mxCell id="yiJvitMjWtOU7qGL33Nb-10" value="Sigmoid" style="ellipse;whiteSpace=wrap;html=1;dashed=1;strokeWidth=2;fontFamily=Times New Roman;fontSize=24;fillColor=none;" parent="1" vertex="1">
          <mxGeometry x="599" y="979" width="120" height="80" as="geometry" />
        </mxCell>
        <mxCell id="551UjRQRnKLMiDwJg6kU-3" style="edgeStyle=orthogonalEdgeStyle;rounded=0;orthogonalLoop=1;jettySize=auto;html=1;exitX=0;exitY=0.5;exitDx=0;exitDy=0;entryX=1;entryY=0.5;entryDx=0;entryDy=0;fontFamily=Times New Roman;fontSize=24;" edge="1" parent="1" source="yiJvitMjWtOU7qGL33Nb-11" target="551UjRQRnKLMiDwJg6kU-1">
          <mxGeometry relative="1" as="geometry" />
        </mxCell>
        <mxCell id="551UjRQRnKLMiDwJg6kU-4" style="edgeStyle=orthogonalEdgeStyle;rounded=0;orthogonalLoop=1;jettySize=auto;html=1;exitX=1;exitY=0.5;exitDx=0;exitDy=0;entryX=0;entryY=0.5;entryDx=0;entryDy=0;fontFamily=Times New Roman;fontSize=24;" edge="1" parent="1" source="yiJvitMjWtOU7qGL33Nb-11" target="551UjRQRnKLMiDwJg6kU-2">
          <mxGeometry relative="1" as="geometry" />
        </mxCell>
        <mxCell id="yiJvitMjWtOU7qGL33Nb-11" value="ri" style="whiteSpace=wrap;html=1;aspect=fixed;strokeWidth=2;fontFamily=Times New Roman;fontSize=24;fillColor=none;" parent="1" vertex="1">
          <mxGeometry x="619" y="872" width="80" height="80" as="geometry" />
        </mxCell>
        <mxCell id="551UjRQRnKLMiDwJg6kU-11" style="edgeStyle=orthogonalEdgeStyle;rounded=0;orthogonalLoop=1;jettySize=auto;html=1;exitX=0.5;exitY=0;exitDx=0;exitDy=0;entryX=0.5;entryY=1;entryDx=0;entryDy=0;fontFamily=Times New Roman;fontSize=24;" edge="1" parent="1" source="551UjRQRnKLMiDwJg6kU-1" target="551UjRQRnKLMiDwJg6kU-9">
          <mxGeometry relative="1" as="geometry" />
        </mxCell>
        <mxCell id="551UjRQRnKLMiDwJg6kU-1" value="&lt;font face=&quot;Times New Roman&quot; style=&quot;font-size: 24px;&quot;&gt;hi*ri&lt;/font&gt;" style="ellipse;whiteSpace=wrap;html=1;aspect=fixed;dashed=1;" vertex="1" parent="1">
          <mxGeometry x="398" y="862" width="103" height="103" as="geometry" />
        </mxCell>
        <mxCell id="551UjRQRnKLMiDwJg6kU-12" style="edgeStyle=orthogonalEdgeStyle;rounded=0;orthogonalLoop=1;jettySize=auto;html=1;exitX=0.5;exitY=0;exitDx=0;exitDy=0;entryX=0.5;entryY=1;entryDx=0;entryDy=0;fontFamily=Times New Roman;fontSize=24;" edge="1" parent="1" source="551UjRQRnKLMiDwJg6kU-2" target="551UjRQRnKLMiDwJg6kU-10">
          <mxGeometry relative="1" as="geometry" />
        </mxCell>
        <mxCell id="551UjRQRnKLMiDwJg6kU-2" value="&lt;font face=&quot;Times New Roman&quot; style=&quot;font-size: 24px;&quot;&gt;si*(1-ri)&lt;/font&gt;" style="ellipse;whiteSpace=wrap;html=1;aspect=fixed;dashed=1;" vertex="1" parent="1">
          <mxGeometry x="818.5" y="861" width="103" height="103" as="geometry" />
        </mxCell>
        <mxCell id="551UjRQRnKLMiDwJg6kU-14" style="edgeStyle=orthogonalEdgeStyle;rounded=0;orthogonalLoop=1;jettySize=auto;html=1;exitX=1;exitY=0.5;exitDx=0;exitDy=0;entryX=0;entryY=0.5;entryDx=0;entryDy=0;fontFamily=Times New Roman;fontSize=24;" edge="1" parent="1" source="551UjRQRnKLMiDwJg6kU-9" target="551UjRQRnKLMiDwJg6kU-13">
          <mxGeometry relative="1" as="geometry" />
        </mxCell>
        <mxCell id="551UjRQRnKLMiDwJg6kU-9" value="hri" style="rounded=0;whiteSpace=wrap;html=1;fontFamily=Times New Roman;fontSize=24;" vertex="1" parent="1">
          <mxGeometry x="389.5" y="767" width="120" height="60" as="geometry" />
        </mxCell>
        <mxCell id="551UjRQRnKLMiDwJg6kU-15" style="edgeStyle=orthogonalEdgeStyle;rounded=0;orthogonalLoop=1;jettySize=auto;html=1;exitX=0;exitY=0.5;exitDx=0;exitDy=0;entryX=1;entryY=0.5;entryDx=0;entryDy=0;fontFamily=Times New Roman;fontSize=24;" edge="1" parent="1" source="551UjRQRnKLMiDwJg6kU-10" target="551UjRQRnKLMiDwJg6kU-13">
          <mxGeometry relative="1" as="geometry" />
        </mxCell>
        <mxCell id="551UjRQRnKLMiDwJg6kU-10" value="sri" style="rounded=0;whiteSpace=wrap;html=1;fontFamily=Times New Roman;fontSize=24;" vertex="1" parent="1">
          <mxGeometry x="810" y="767" width="120" height="60" as="geometry" />
        </mxCell>
        <mxCell id="551UjRQRnKLMiDwJg6kU-17" style="edgeStyle=orthogonalEdgeStyle;rounded=0;orthogonalLoop=1;jettySize=auto;html=1;exitX=0.5;exitY=0;exitDx=0;exitDy=0;entryX=0.5;entryY=1;entryDx=0;entryDy=0;fontFamily=Times New Roman;fontSize=24;" edge="1" parent="1" source="551UjRQRnKLMiDwJg6kU-13" target="551UjRQRnKLMiDwJg6kU-16">
          <mxGeometry relative="1" as="geometry" />
        </mxCell>
        <mxCell id="551UjRQRnKLMiDwJg6kU-13" value="Concat" style="ellipse;whiteSpace=wrap;html=1;dashed=1;strokeWidth=2;fontFamily=Times New Roman;fontSize=24;fillColor=none;" vertex="1" parent="1">
          <mxGeometry x="594" y="756" width="120" height="80" as="geometry" />
        </mxCell>
        <mxCell id="551UjRQRnKLMiDwJg6kU-16" value="hri" style="rounded=0;whiteSpace=wrap;html=1;fontFamily=Times New Roman;fontSize=24;" vertex="1" parent="1">
          <mxGeometry x="594" y="652" width="120" height="60" as="geometry" />
        </mxCell>
      </root>
    </mxGraphModel>
  </diagram>
</mxfile>
